<mxfile host="app.diagrams.net" modified="2023-12-18T13:21:49.802Z" agent="Mozilla/5.0 (X11; Ubuntu; Linux x86_64; rv:109.0) Gecko/20100101 Firefox/116.0" version="22.1.11" etag="jA236oDnIVPU3894u7tr" type="github">
  <diagram name="第 1 页" id="IQU6jFRGpec_LWGkQjYb">
    <mxGraphModel>
      <root>
        <mxCell id="0" />
        <mxCell id="1" parent="0" />
      </root>
    </mxGraphModel>
  </diagram>
</mxfile>
